<mxfile host="app.diagrams.net" modified="2021-08-10T18:00:39.241Z" agent="5.0 (Windows NT 10.0; Win64; x64) AppleWebKit/537.36 (KHTML, like Gecko) Chrome/92.0.4515.131 Safari/537.36" etag="y4nEinige_wr8mPl8nVg" version="14.9.5" type="github">
  <diagram id="hOA9HWO0stQCfznon2GV" name="Page-1">
    <mxGraphModel dx="1422" dy="762" grid="0" gridSize="10" guides="1" tooltips="1" connect="1" arrows="1" fold="1" page="1" pageScale="1" pageWidth="827" pageHeight="1169" math="0" shadow="0">
      <root>
        <mxCell id="0" />
        <mxCell id="1" parent="0" />
        <mxCell id="CIBt73lVi8_bv28ipsNm-3" value="" style="shape=cylinder3;whiteSpace=wrap;html=1;boundedLbl=1;backgroundOutline=1;size=15;" vertex="1" parent="1">
          <mxGeometry x="511" y="355" width="250" height="230" as="geometry" />
        </mxCell>
        <mxCell id="CIBt73lVi8_bv28ipsNm-6" value="" style="endArrow=none;dashed=1;html=1;exitX=0;exitY=0;exitDx=0;exitDy=120;exitPerimeter=0;entryX=1;entryY=0;entryDx=0;entryDy=120;entryPerimeter=0;" edge="1" parent="1" source="CIBt73lVi8_bv28ipsNm-3" target="CIBt73lVi8_bv28ipsNm-3">
          <mxGeometry width="50" height="50" relative="1" as="geometry">
            <mxPoint x="721" y="290" as="sourcePoint" />
            <mxPoint x="771" y="240" as="targetPoint" />
            <Array as="points">
              <mxPoint x="571" y="490" />
              <mxPoint x="636" y="490" />
              <mxPoint x="701" y="490" />
            </Array>
          </mxGeometry>
        </mxCell>
        <mxCell id="CIBt73lVi8_bv28ipsNm-8" value="" style="endArrow=none;dashed=1;html=1;exitX=0;exitY=0;exitDx=0;exitDy=120;exitPerimeter=0;entryX=1;entryY=0;entryDx=0;entryDy=120;entryPerimeter=0;" edge="1" parent="1">
          <mxGeometry width="50" height="50" relative="1" as="geometry">
            <mxPoint x="511" y="510" as="sourcePoint" />
            <mxPoint x="761" y="510" as="targetPoint" />
            <Array as="points">
              <mxPoint x="571" y="525" />
              <mxPoint x="636" y="525" />
              <mxPoint x="701" y="525" />
            </Array>
          </mxGeometry>
        </mxCell>
        <mxCell id="CIBt73lVi8_bv28ipsNm-9" value="" style="endArrow=none;dashed=1;html=1;exitX=0;exitY=0;exitDx=0;exitDy=120;exitPerimeter=0;entryX=1;entryY=0;entryDx=0;entryDy=120;entryPerimeter=0;" edge="1" parent="1">
          <mxGeometry width="50" height="50" relative="1" as="geometry">
            <mxPoint x="511" y="440" as="sourcePoint" />
            <mxPoint x="761" y="440" as="targetPoint" />
            <Array as="points">
              <mxPoint x="571" y="455" />
              <mxPoint x="636" y="455" />
              <mxPoint x="701" y="455" />
            </Array>
          </mxGeometry>
        </mxCell>
        <mxCell id="CIBt73lVi8_bv28ipsNm-10" value="" style="endArrow=none;dashed=1;html=1;exitX=0;exitY=0;exitDx=0;exitDy=120;exitPerimeter=0;entryX=1;entryY=0;entryDx=0;entryDy=120;entryPerimeter=0;" edge="1" parent="1">
          <mxGeometry width="50" height="50" relative="1" as="geometry">
            <mxPoint x="511" y="540" as="sourcePoint" />
            <mxPoint x="761" y="540" as="targetPoint" />
            <Array as="points">
              <mxPoint x="571" y="555" />
              <mxPoint x="636" y="555" />
              <mxPoint x="701" y="555" />
            </Array>
          </mxGeometry>
        </mxCell>
        <mxCell id="CIBt73lVi8_bv28ipsNm-11" value="Base de datos Bomba" style="text;html=1;strokeColor=none;fillColor=none;align=center;verticalAlign=middle;whiteSpace=wrap;rounded=0;" vertex="1" parent="1">
          <mxGeometry x="561" y="390" width="160" height="20" as="geometry" />
        </mxCell>
        <mxCell id="CIBt73lVi8_bv28ipsNm-12" value="2021" style="text;html=1;strokeColor=none;fillColor=none;align=center;verticalAlign=middle;whiteSpace=wrap;rounded=0;" vertex="1" parent="1">
          <mxGeometry x="611" y="460" width="40" height="20" as="geometry" />
        </mxCell>
        <mxCell id="CIBt73lVi8_bv28ipsNm-13" value="2022" style="text;html=1;strokeColor=none;fillColor=none;align=center;verticalAlign=middle;whiteSpace=wrap;rounded=0;" vertex="1" parent="1">
          <mxGeometry x="611" y="500" width="40" height="20" as="geometry" />
        </mxCell>
        <mxCell id="CIBt73lVi8_bv28ipsNm-14" value="2023" style="text;html=1;strokeColor=none;fillColor=none;align=center;verticalAlign=middle;whiteSpace=wrap;rounded=0;" vertex="1" parent="1">
          <mxGeometry x="611" y="530" width="40" height="20" as="geometry" />
        </mxCell>
        <mxCell id="CIBt73lVi8_bv28ipsNm-15" value="2024" style="text;html=1;strokeColor=none;fillColor=none;align=center;verticalAlign=middle;whiteSpace=wrap;rounded=0;" vertex="1" parent="1">
          <mxGeometry x="611" y="560" width="40" height="20" as="geometry" />
        </mxCell>
        <mxCell id="CIBt73lVi8_bv28ipsNm-16" value="Discos Azure" style="swimlane;" vertex="1" parent="1">
          <mxGeometry x="70" y="395" width="317" height="155" as="geometry" />
        </mxCell>
        <mxCell id="CIBt73lVi8_bv28ipsNm-24" value="SSD Premium" style="shape=process;whiteSpace=wrap;html=1;backgroundOutline=1;" vertex="1" parent="CIBt73lVi8_bv28ipsNm-16">
          <mxGeometry x="39" y="28" width="70" height="40" as="geometry" />
        </mxCell>
        <mxCell id="CIBt73lVi8_bv28ipsNm-25" value="SSD Estandar" style="shape=process;whiteSpace=wrap;html=1;backgroundOutline=1;" vertex="1" parent="CIBt73lVi8_bv28ipsNm-16">
          <mxGeometry x="39" y="97" width="70" height="40" as="geometry" />
        </mxCell>
        <mxCell id="CIBt73lVi8_bv28ipsNm-29" value="Se mueven los Files Groups antiguos." style="text;html=1;strokeColor=none;fillColor=none;align=center;verticalAlign=middle;whiteSpace=wrap;rounded=0;" vertex="1" parent="CIBt73lVi8_bv28ipsNm-16">
          <mxGeometry x="138" y="109" width="170" height="20" as="geometry" />
        </mxCell>
        <mxCell id="CIBt73lVi8_bv28ipsNm-31" value="Disco de almacenamiento para la data actual" style="text;html=1;strokeColor=none;fillColor=none;align=center;verticalAlign=middle;whiteSpace=wrap;rounded=0;" vertex="1" parent="CIBt73lVi8_bv28ipsNm-16">
          <mxGeometry x="138" y="41" width="160" height="20" as="geometry" />
        </mxCell>
        <mxCell id="CIBt73lVi8_bv28ipsNm-27" value="" style="endArrow=none;html=1;" edge="1" parent="CIBt73lVi8_bv28ipsNm-16">
          <mxGeometry width="50" height="50" relative="1" as="geometry">
            <mxPoint x="3.5" y="86" as="sourcePoint" />
            <mxPoint x="313.5" y="86" as="targetPoint" />
            <Array as="points" />
          </mxGeometry>
        </mxCell>
        <mxCell id="CIBt73lVi8_bv28ipsNm-37" style="edgeStyle=orthogonalEdgeStyle;rounded=0;orthogonalLoop=1;jettySize=auto;html=1;entryX=0.1;entryY=0.5;entryDx=0;entryDy=0;entryPerimeter=0;" edge="1" parent="1" source="CIBt73lVi8_bv28ipsNm-33" target="CIBt73lVi8_bv28ipsNm-35">
          <mxGeometry relative="1" as="geometry" />
        </mxCell>
        <mxCell id="CIBt73lVi8_bv28ipsNm-33" value="" style="shape=curlyBracket;whiteSpace=wrap;html=1;rounded=1;" vertex="1" parent="1">
          <mxGeometry x="481" y="445" width="20" height="120" as="geometry" />
        </mxCell>
        <mxCell id="CIBt73lVi8_bv28ipsNm-35" value="" style="shape=curlyBracket;whiteSpace=wrap;html=1;rounded=1;flipH=1;" vertex="1" parent="1">
          <mxGeometry x="391" y="420" width="20" height="120" as="geometry" />
        </mxCell>
      </root>
    </mxGraphModel>
  </diagram>
</mxfile>
